<?xml version="1.0" encoding="UTF-8" standalone="no"?>
<!-- Created with Inkscape (http://www.inkscape.org/) -->

<svg
   xmlns:dc="http://purl.org/dc/elements/1.1/"
   xmlns:cc="http://creativecommons.org/ns#"
   xmlns:rdf="http://www.w3.org/1999/02/22-rdf-syntax-ns#"
   xmlns:svg="http://www.w3.org/2000/svg"
   xmlns="http://www.w3.org/2000/svg"
   xmlns:xlink="http://www.w3.org/1999/xlink"
   xmlns:sodipodi="http://sodipodi.sourceforge.net/DTD/sodipodi-0.dtd"
   xmlns:inkscape="http://www.inkscape.org/namespaces/inkscape"
   width="200"
   height="200"
   id="svg3783"
   version="1.1"
   inkscape:version="0.48.5 r10040"
   sodipodi:docname="icon_circle_2.svg"
   inkscape:export-filename="Z:\dev\git\mercury\app\src\main\res\drawable-mdpi\ic_launcher.png"
   inkscape:export-xdpi="72"
   inkscape:export-ydpi="72">
  <sodipodi:namedview
     id="base"
     pagecolor="#ffffff"
     bordercolor="#666666"
     borderopacity="1.0"
     inkscape:pageopacity="0.0"
     inkscape:pageshadow="2"
     inkscape:zoom="7.9195959"
     inkscape:cx="104.76978"
     inkscape:cy="91.677152"
     inkscape:document-units="px"
     inkscape:current-layer="layer2"
     showgrid="false"
     inkscape:window-width="1920"
     inkscape:window-height="1017"
     inkscape:window-x="-8"
     inkscape:window-y="-8"
     inkscape:window-maximized="1" />
  <defs
     id="defs3785">
    <linearGradient
       id="linearGradient6116">
      <stop
         style="stop-color:#000000;stop-opacity:1;"
         offset="0"
         id="stop6118" />
      <stop
         style="stop-color:#000000;stop-opacity:0;"
         offset="1"
         id="stop6120" />
    </linearGradient>
    <linearGradient
       id="linearGradient5159">
      <stop
         id="stop5161"
         offset="0"
         style="stop-color:#000000;stop-opacity:1;" />
      <stop
         id="stop5163"
         offset="1"
         style="stop-color:#000000;stop-opacity:0;" />
    </linearGradient>
    <linearGradient
       id="linearGradient5150">
      <stop
         id="stop5152"
         offset="0"
         style="stop-color:#000000;stop-opacity:1;" />
      <stop
         id="stop5154"
         offset="1"
         style="stop-color:#000000;stop-opacity:0;" />
    </linearGradient>
    <linearGradient
       gradientUnits="userSpaceOnUse"
       y2="112.37489"
       x2="138.71897"
       y1="112.37489"
       x1="86.037596"
       id="linearGradient5156"
       xlink:href="#linearGradient5150"
       inkscape:collect="always" />
    <linearGradient
       gradientUnits="userSpaceOnUse"
       y2="121.75517"
       x2="120.8643"
       y1="105.41061"
       x1="104.51974"
       id="linearGradient5165"
       xlink:href="#linearGradient5159"
       inkscape:collect="always" />
    <linearGradient
       inkscape:collect="always"
       xlink:href="#linearGradient6116"
       id="linearGradient6122"
       x1="105.4315"
       y1="106.5525"
       x2="120.92349"
       y2="122.04449"
       gradientUnits="userSpaceOnUse" />
    <clipPath
       clipPathUnits="userSpaceOnUse"
       id="clipPath6142">
      <path
         transform="translate(18.928574,20.71429)"
         d="m 111.07143,79.285713 a 30,30 0 1 1 -60.000004,0 30,30 0 1 1 60.000004,0 z"
         sodipodi:ry="30"
         sodipodi:rx="30"
         sodipodi:cy="79.285713"
         sodipodi:cx="81.071426"
         id="path6144"
         style="fill:#4f6873;fill-opacity:1;fill-rule:nonzero;stroke:none"
         sodipodi:type="arc" />
    </clipPath>
    <clipPath
       clipPathUnits="userSpaceOnUse"
       id="clipPath6146">
      <path
         transform="translate(18.928574,20.71429)"
         d="m 111.07143,79.285713 a 30,30 0 1 1 -60.000004,0 30,30 0 1 1 60.000004,0 z"
         sodipodi:ry="30"
         sodipodi:rx="30"
         sodipodi:cy="79.285713"
         sodipodi:cx="81.071426"
         id="path6148"
         style="fill:#4f6873;fill-opacity:1;fill-rule:nonzero;stroke:none"
         sodipodi:type="arc" />
    </clipPath>
    <clipPath
       clipPathUnits="userSpaceOnUse"
       id="clipPath6150">
      <path
         transform="translate(18.928574,20.71429)"
         d="m 111.07143,79.285713 a 30,30 0 1 1 -60.000004,0 30,30 0 1 1 60.000004,0 z"
         sodipodi:ry="30"
         sodipodi:rx="30"
         sodipodi:cy="79.285713"
         sodipodi:cx="81.071426"
         id="path6152"
         style="fill:#4f6873;fill-opacity:1;fill-rule:nonzero;stroke:none"
         sodipodi:type="arc" />
    </clipPath>
  </defs>
  <metadata
     id="metadata3788">
    <rdf:RDF>
      <cc:Work
         rdf:about="">
        <dc:format>image/svg+xml</dc:format>
        <dc:type
           rdf:resource="http://purl.org/dc/dcmitype/StillImage" />
        <dc:title></dc:title>
      </cc:Work>
    </rdf:RDF>
  </metadata>
  <g
     inkscape:label="base"
     inkscape:groupmode="layer"
     id="layer1"
     transform="translate(0,-852.36218)"
     sodipodi:insensitive="true">
    <path
       sodipodi:type="arc"
       style="fill:#4f6873;fill-opacity:1;fill-rule:nonzero;stroke:none"
       id="path3791"
       sodipodi:cx="81.071426"
       sodipodi:cy="79.285713"
       sodipodi:rx="30"
       sodipodi:ry="30"
       d="m 111.07143,79.285713 a 30,30 0 1 1 -60.000004,0 30,30 0 1 1 60.000004,0 z"
       transform="translate(18.928574,873.07647)" />
  </g>
  <g
     inkscape:groupmode="layer"
     id="layer2"
     inkscape:label="icon">
    <path
       style="fill:url(#linearGradient6122);fill-opacity:1;fill-rule:nonzero;stroke:none;display:inline;opacity:0.15"
       d="m 113.375,85.96875 c -3.2106,1.858807 -5.8334,4.943333 -9.69835,5.477947 -3.05094,0.715441 -7.166732,1.18521 -8.305489,4.645534 -1.173854,2.921721 2.587474,6.035499 -1.102404,7.850219 -2.767153,1.62405 -4.114859,5.63262 -7.755063,5.33398 -3.4375,-0.77489 -4.361446,2.87767 -1.40759,4.30363 7.752184,7.72815 15.468506,15.52382 23.247656,23.23593 2.3977,1.68647 5.48492,2.62135 8.42764,2.41341 3.11922,-0.22962 4.87851,-4.04668 8.18358,-3.46548 2.56401,0.45692 5.54632,-0.86731 5.21993,-3.84067 1.98604,-0.7028 4.70689,-0.94051 6.01129,-3.32703 0.92537,-1.66732 1.52644,-4.05964 3.6095,-5.16659 2.44003,-0.93697 0.66176,-3.45803 2.10521,-5.07815 -1.71058,-2.0256 2.005,-4.30043 -1.12365,-5.82522 -7.91724,-7.91474 -15.84712,-15.816977 -23.75403,-23.74211 -1.62567,-0.341108 -2.10128,-2.348562 -3.65823,-2.8154 z"
       id="path5296"
       inkscape:connector-curvature="0"
       clip-path="url(#clipPath6150)" />
    <path
       clip-path="url(#clipPath6146)"
       style="fill:#263238;fill-opacity:1;fill-rule:nonzero;stroke:none;display:inline"
       d="m 89.311047,114.20586 c -1.858683,-0.35885 -4.631756,-1.38102 -5.594545,-2.05965 -0.936977,-0.66137 -1.172618,-1.35639 -0.750774,-2.21374 0.34035,-0.69202 0.947698,-0.93871 2.163943,-0.87902 2.482973,0.1215 2.728849,0.0986 3.263022,-0.30058 0.276486,-0.2069 1.538263,-1.35144 2.803947,-2.54355 1.265711,-1.19208 2.69561,-2.47733 3.177631,-2.8559 0.481947,-0.37876 1.05646,-0.95861 1.276716,-1.28859 l 0.400447,-0.60028 -0.569307,-1.32908 C 94.992875,98.9925 94.912905,98.663048 94.9143,97.796364 c 0.0024,-1.865267 0.44368,-3.034289 1.531031,-4.06192 0.947867,-0.895742 2.245294,-1.433854 5.035909,-2.088896 3.62112,-0.849611 4.73465,-1.209 5.79993,-1.871952 1.40046,-0.871439 3.5153,-2.397398 4.34792,-3.137482 1.23926,-1.101231 1.95117,-1.214799 2.28604,-0.364836 0.22302,0.565934 0.0963,1.11743 -0.49284,2.145934 -0.26449,0.461697 -0.47881,0.880952 -0.47625,0.931839 0.001,0.05108 0.13189,0.25321 0.28754,0.449721 0.28238,0.356574 0.28369,0.356744 0.72909,0.08458 0.24539,-0.149666 0.70434,-0.492687 1.01985,-0.761561 0.82356,-0.701706 1.36699,-0.87497 1.80234,-0.575095 0.66328,0.456758 0.5951,1.312 -0.2057,2.57964 -0.40802,0.646051 -0.41046,0.661375 -0.15091,0.955087 0.32206,0.364132 0.48701,1.215686 0.35649,1.840429 -0.0532,0.254619 -0.28752,0.69149 -0.52066,0.970581 -0.41355,0.495149 -0.41766,0.514865 -0.16834,0.804524 0.37272,0.43282 0.32348,1.185764 -0.11721,1.793255 -0.49542,0.682681 -1.56109,1.488098 -2.33848,1.766828 -0.51984,0.18665 -0.62239,0.28315 -0.59127,0.5566 0.0906,0.79645 -0.2448,1.31079 -1.49584,2.29334 -0.0333,0.0264 0.0141,0.12501 0.10472,0.22133 0.51177,0.53793 -0.081,1.57703 -1.07922,1.89133 -0.38714,0.12149 -0.55578,0.28737 -0.73026,0.71684 -0.43857,1.07957 -2.13974,1.78973 -3.64492,1.5219 -0.48344,-0.0863 -0.88868,-0.1479 -0.90053,-0.13911 -0.0123,0.0176 -0.0842,0.56629 -0.16094,1.237 -0.18237,1.59585 -0.57737,2.2537 -1.67954,2.79693 -0.75089,0.36995 -0.91381,0.39161 -3.03787,0.40499 l -2.244472,0.0176 -0.969961,0.53918 c -0.533477,0.2967 -1.410182,0.8695 -1.948247,1.27292 -1.718084,1.28805 -2.523303,1.62701 -4.013169,1.6897 -0.713671,0.0299 -1.585689,-0.001 -1.937814,-0.0687 z"
       id="path3784"
       inkscape:connector-curvature="0" />
    <path
       clip-path="url(#clipPath6142)"
       inkscape:connector-curvature="0"
       style="fill:#ffffff;fill-opacity:0.94117647;fill-rule:nonzero;stroke:none;display:inline"
       d="m 113.02988,86.650847 c -0.14563,0.02111 -0.44916,0.241586 -0.9257,0.669298 -1.45508,1.305667 -4.68651,3.461126 -5.92355,3.950462 -0.46989,0.185944 -1.92345,0.578615 -3.22905,0.87355 -4.818524,1.088031 -6.046318,1.689007 -6.75363,3.298601 -0.297885,0.677743 -0.361549,1.045407 -0.365055,2.073037 -0.0036,1.124128 0.04102,1.345467 0.460665,2.238047 0.439202,0.934288 0.494664,0.990998 0.943075,0.990998 0.261788,0 0.473709,-0.0564 0.473709,-0.12678 l 0.0048,0 c 0,-0.0703 -0.18422,-0.36819 -0.408517,-0.664898 -0.493898,-0.65327 -0.625654,-1.376618 -0.438947,-2.398977 0.237729,-1.301795 0.712566,-1.874064 2.164289,-2.612036 1.313571,-0.667539 1.578941,-0.755408 4.980481,-1.612239 3.0999,-0.781106 4.94516,-1.669096 6.89271,-3.316023 1.0172,-0.860168 1.67944,-1.747112 2.10778,-2.824927 0.15162,-0.381217 0.16305,-0.559588 0.0176,-0.538816 z m 3.22471,2.659757 c -0.13542,0.03167 -0.48366,0.252337 -0.83443,0.534424 -0.40087,0.322589 -1.29425,0.94487 -1.98611,1.382081 -3.36537,2.127457 -4.05409,2.40338 -7.4968,2.98129 -5.78562,0.971284 -6.848676,1.570148 -7.370746,4.159118 -0.08638,0.428245 -0.1562,0.988725 -0.156451,1.247385 -6.99e-4,0.709088 1.108411,3.895508 1.382011,3.972118 0.641576,0.17961 0.717086,0.11793 0.717086,-0.56488 0,-0.55326 -0.0827,-0.74854 -0.49108,-1.2039 -0.587776,-0.65502 -0.715076,-1.26006 -0.504146,-2.364288 0.18756,-0.981663 0.690446,-1.839901 1.312476,-2.238019 0.94083,-0.602395 2.80962,-1.176774 5.03699,-1.551487 4.27643,-0.719482 7.3341,-2.091178 9.23951,-4.141866 0.69672,-0.749766 1.44012,-2.126218 1.19514,-2.211976 -0.0109,0 -0.0241,0 -0.0435,0 z m -3.85922,0.903846 c -0.21419,-0.01759 -0.5647,0.185241 -1.03868,0.591112 -0.42205,0.36133 -1.16557,0.901202 -1.65148,1.199488 -1.03048,0.632679 -1.06123,0.662612 -0.79967,0.66067 0.10888,-8.73e-4 0.73302,-0.288421 1.38637,-0.639001 1.97913,-1.061616 2.37861,-1.332966 2.33814,-1.564518 -0.0277,-0.160232 -0.10614,-0.24053 -0.23468,-0.247751 z m 3.22037,2.303366 c -0.0742,0 -0.62953,0.37259 -1.22992,0.82583 -0.60039,0.45307 -1.43729,1.005451 -1.86008,1.229953 -1.00753,0.534776 -3.06811,1.301614 -4.11128,1.525425 -0.71597,0.153196 -0.84442,0.228386 -0.93003,0.564879 -0.0546,0.214469 -0.074,0.415554 -0.0435,0.44761 0.0863,0.09161 1.65897,-0.149676 3.19861,-0.491108 1.86286,-0.413091 3.02281,-0.88623 4.15041,-1.690583 1.04145,-0.742899 1.35443,-1.316053 1.09952,-2.020743 -0.0773,-0.213777 -0.19969,-0.391263 -0.27378,-0.391263 z m -0.47806,3.498617 c -0.17292,-0.01759 -0.46509,0.1092 -1.01261,0.395485 -1.1533,0.602748 -3.04375,1.151077 -4.83706,1.407975 -0.71738,0.102156 -1.32308,0.203912 -1.34727,0.2217 -0.0241,0.01759 3e-4,0.269578 0.0522,0.560645 0.0898,0.503244 0.11903,0.530184 0.6519,0.530184 0.30826,0 1.22998,-0.1057 2.04695,-0.23031 2.50855,-0.382285 3.23578,-0.673351 4.31553,-1.734082 0.48289,-0.474376 0.57232,-0.839565 0.26947,-1.103877 -0.0351,-0.02996 -0.0816,-0.04404 -0.13911,-0.04757 z m -8.46161,0.447611 -0.67363,0.100343 c -1.90971,0.283494 -4.37935,1.039436 -4.59367,1.403751 -0.044,0.07571 0.18649,0.100344 0.52586,0.05982 0.33065,-0.03701 1.35489,-0.140868 2.27728,-0.230315 0.9224,-0.08978 1.75884,-0.234015 1.86007,-0.321532 0.10123,-0.08809 0.28049,-0.353056 0.39549,-0.586718 l 0.2086,-0.425941 z m -8.591972,0.225921 c -0.01213,0.0012 -0.03579,0.03349 -0.06953,0.09161 -0.07122,0.121503 -0.17023,0.384566 -0.221639,0.586719 -0.06491,0.255139 -0.05521,0.300749 0.0347,0.147905 0.07122,-0.121491 0.174585,-0.38914 0.225982,-0.591111 0.04064,-0.160233 0.04987,-0.236478 0.03046,-0.234719 z m 8.631082,1.499363 c -0.0598,0 -0.13454,0.05278 -0.24771,0.1303 -0.34176,0.235423 -2.85442,0.508694 -4.71103,0.512754 -1.13925,0 -1.38637,0.13383 -1.38637,0.71701 l 0,0.3608 2.7684,-0.0916 c 1.52337,-0.0493 2.95159,-0.16201 3.17689,-0.25216 0.22519,-0.0898 0.52009,-0.26572 0.6519,-0.39109 0.21698,-0.20637 0.21907,-0.26835 0.0305,-0.651864 -0.1229,-0.249861 -0.18275,-0.347061 -0.28249,-0.334735 z m 5.00656,1.542844 c -0.31764,0 -0.89465,0.0739 -1.92092,0.20426 -0.9224,0.116228 -1.81122,0.214828 -1.97741,0.217298 -0.27813,0 -0.29337,0.0423 -0.15637,0.48247 0.0819,0.26253 0.17291,0.5654 0.19991,0.67351 0.0382,0.15319 0.38719,0.18648 1.57324,0.14792 1.46429,-0.0476 1.54461,-0.0669 2.06001,-0.50413 0.3299,-0.27997 0.55516,-0.60802 0.58234,-0.84733 0.0299,-0.263758 0.0477,-0.376458 -0.36071,-0.373818 z m -5.20646,0.773538 c -0.0358,3.5e-4 -0.0734,0.0176 -0.11309,0.0264 -0.12854,0.0564 -1.46069,0.13208 -2.95959,0.16904 -1.49893,0.037 -2.81581,0.0969 -2.92483,0.13384 -0.14351,0.0492 -0.0632,0.20847 0.28246,0.57367 l 0.47807,0.50414 2.14689,0 c 1.25731,0 2.37815,-0.0687 2.69886,-0.16904 0.64964,-0.20462 0.88991,-0.57069 0.66493,-1.01268 -0.0791,-0.15495 -0.16675,-0.2312 -0.27379,-0.23031 z m -9.000501,1.12131 c -0.403688,0 -0.564649,0.11794 -1.069103,0.77354 -0.325962,0.42419 -0.818258,0.98731 -1.095189,1.25161 -0.427931,0.40869 -0.471355,0.50008 -0.282489,0.61717 0.122219,0.0757 0.375381,0.27241 0.560633,0.43459 0.185239,0.16199 0.349912,0.29723 0.365067,0.29987 0.01517,0 0.449746,-0.33422 0.969149,-0.74748 0.519402,-0.41327 1.091452,-0.82321 1.269023,-0.90824 0.342604,-0.16377 0.340254,-0.25356 -0.04781,-1.22997 -0.166626,-0.41925 -0.263766,-0.49109 -0.669273,-0.49109 z m 10.656311,0.71702 c -1.33155,0.0176 -1.79489,0.16904 -1.79489,0.56064 0,0.41997 3.2976,0.63885 4.12867,0.27382 0.49688,-0.21817 0.63961,-0.57473 0.28683,-0.71701 -0.10898,-0.044 -1.00639,-0.0969 -1.99479,-0.11271 -0.22688,0 -0.4356,0 -0.62582,0 z m -3.88095,0.47807 c -0.25765,-10e-4 -0.57768,0 -0.9735,0.0176 -1.82613,0.0387 -1.90134,0.0527 -1.94265,0.3564 -0.0512,0.37787 0.32009,0.53477 1.99916,0.83445 1.27599,0.22769 1.82074,0.11273 2.05563,-0.43017 0.11163,-0.2576 0.10462,-0.40287 -0.0305,-0.57367 -0.11283,-0.14263 -0.33524,-0.19651 -1.10821,-0.20004 z m 2.29466,1.25161 c -0.29218,-0.0211 -0.4331,0.0881 -0.8518,0.46944 -0.32368,0.29511 -0.56007,0.56311 -0.53021,0.59534 0.0299,0.0317 0.35072,0.14615 0.71709,0.25216 0.82423,0.23999 1.74808,0.13382 2.48154,-0.28684 0.30662,-0.17626 0.57838,-0.43775 0.6041,-0.5781 0.0396,-0.21569 -0.0661,-0.25532 -0.69537,-0.26078 -0.40918,0 -1.02304,-0.0616 -1.36463,-0.1303 -0.14721,-0.03 -0.26331,-0.0546 -0.36072,-0.0616 z m -6.14519,0.43035 c -0.087,1.7e-4 -0.17397,8.8e-4 -0.26076,0 -1.143566,0.0457 -1.68206,0.27769 -2.677103,1.14296 -0.388605,0.33791 -0.405045,0.38809 -0.221651,0.70399 0.524172,0.90278 0.858263,1.77158 0.956118,2.49019 0.106404,0.78111 0.1132,0.78974 0.66493,0.88659 0.3067,0.0546 1.250886,0.0828 2.099106,0.0652 1.33853,-0.0282 1.62682,-0.0793 2.16864,-0.39125 0.87038,-0.50184 1.12995,-1.09295 1.08215,-2.47276 -0.0364,-1.05209 -0.0542,-1.10141 -0.54326,-1.51679 -0.65235,-0.55414 -1.9624,-0.91511 -3.26817,-0.91264 z m -6.797085,0.79537 c -0.151203,0 -1.243739,0.91494 -2.468508,2.06424 -1.208235,1.13381 -2.447857,2.1868 -2.755342,2.34245 -0.650157,0.32946 -1.033576,0.35746 -2.955257,0.21306 -1.415744,-0.10734 -1.415604,-0.1092 -1.651467,0.26941 -0.183519,0.29443 -0.201202,0.44938 -0.08257,0.68234 0.313633,0.61594 3.854837,2.05086 5.76275,2.33804 1.233169,0.1856 1.331944,0.18824 2.333783,0.0176 1.050207,-0.17908 1.585026,-0.44497 2.976992,-1.49075 0.568615,-0.42718 1.265978,-0.90929 1.551499,-1.069 0.482069,-0.26976 0.517899,-0.33932 0.51717,-0.95614 -0.0011,-0.93325 -0.211895,-1.63055 -0.743153,-2.4511 -0.484944,-0.74906 -2.019174,-1.95999 -2.485893,-1.95999 z"
       id="path3782" />
  </g>
</svg>
