<?xml version="1.0" encoding="UTF-8" standalone="no"?>
<!-- Created with Inkscape (http://www.inkscape.org/) -->

<svg
   xmlns:dc="http://purl.org/dc/elements/1.1/"
   xmlns:cc="http://creativecommons.org/ns#"
   xmlns:rdf="http://www.w3.org/1999/02/22-rdf-syntax-ns#"
   xmlns:svg="http://www.w3.org/2000/svg"
   xmlns="http://www.w3.org/2000/svg"
   xmlns:xlink="http://www.w3.org/1999/xlink"
   xmlns:sodipodi="http://sodipodi.sourceforge.net/DTD/sodipodi-0.dtd"
   xmlns:inkscape="http://www.inkscape.org/namespaces/inkscape"
   sodipodi:docname="icon_2.svg"
   inkscape:version="0.48.5 r10040"
   version="1.1"
   id="svg3006"
   height="200"
   width="200">
  <sodipodi:namedview
     id="base"
     pagecolor="#ffffff"
     bordercolor="#666666"
     borderopacity="1.0"
     inkscape:pageopacity="0.0"
     inkscape:pageshadow="2"
     inkscape:zoom="7.9999996"
     inkscape:cx="83.003569"
     inkscape:cy="101.22338"
     inkscape:document-units="px"
     inkscape:current-layer="layer3"
     showgrid="false"
     inkscape:window-width="1920"
     inkscape:window-height="1017"
     inkscape:window-x="-8"
     inkscape:window-y="-8"
     inkscape:window-maximized="1" />
  <defs
     id="defs3008">
    <linearGradient
       id="linearGradient5598">
      <stop
         style="stop-color:#000000;stop-opacity:1;"
         offset="0"
         id="stop5600" />
      <stop
         style="stop-color:#000000;stop-opacity:0;"
         offset="1"
         id="stop5602" />
    </linearGradient>
    <linearGradient
       inkscape:collect="always"
       xlink:href="#linearGradient5598"
       id="linearGradient5604"
       x1="106.37048"
       y1="107.15524"
       x2="127.87478"
       y2="128.65955"
       gradientUnits="userSpaceOnUse" />
    <clipPath
       clipPathUnits="userSpaceOnUse"
       id="clipPath3771">
      <rect
         style="fill:#4f6873;fill-opacity:1;fill-rule:nonzero;stroke:none;display:inline"
         id="rect3773"
         width="60"
         height="60"
         x="70"
         y="922.36218"
         rx="6.0714288"
         ry="6.0714288" />
    </clipPath>
    <clipPath
       clipPathUnits="userSpaceOnUse"
       id="clipPath3775">
      <rect
         style="fill:#4f6873;fill-opacity:1;fill-rule:nonzero;stroke:none;display:inline"
         id="rect3777"
         width="60"
         height="60"
         x="70"
         y="922.36218"
         rx="6.0714288"
         ry="6.0714288" />
    </clipPath>
    <clipPath
       clipPathUnits="userSpaceOnUse"
       id="clipPath3779">
      <rect
         style="fill:#4f6873;fill-opacity:1;fill-rule:nonzero;stroke:none;display:inline"
         id="rect3781"
         width="60"
         height="60"
         x="70"
         y="70"
         rx="6.0714288"
         ry="6.0714288" />
    </clipPath>
  </defs>
  <metadata
     id="metadata3011">
    <rdf:RDF>
      <cc:Work
         rdf:about="">
        <dc:format>image/svg+xml</dc:format>
        <dc:type
           rdf:resource="http://purl.org/dc/dcmitype/StillImage" />
        <dc:title></dc:title>
      </cc:Work>
    </rdf:RDF>
  </metadata>
  <g
     style="display:inline"
     transform="translate(0,-852.36218)"
     id="layer1"
     inkscape:groupmode="layer"
     inkscape:label="base"
     sodipodi:insensitive="true">
    <rect
       ry="6.0714288"
       rx="6.0714288"
       y="922.36218"
       x="70"
       height="60"
       width="60"
       id="rect3018"
       style="fill:#4f6873;fill-opacity:1;fill-rule:nonzero;stroke:none" />
  </g>
  <g
     style="display:inline"
     inkscape:label="icon"
     id="layer3"
     inkscape:groupmode="layer">
    <path
       style="display:inline;opacity:0.15;fill:url(#linearGradient5604);fill-opacity:1;fill-rule:nonzero;stroke:none"
       d="m 116.5,82.03125 c -4.02375,2.356094 -7.33747,6.209796 -12.1884,6.896269 -3.82845,0.876539 -8.935282,1.497225 -10.40513,5.798511 -1.774201,3.242495 2.977739,7.00345 -0.685666,9.30133 -2.842846,2.00324 -4.98293,4.80335 -7.744335,6.88118 -2.163995,1.21113 -8.140992,-0.92705 -6.788969,3.55991 9.979016,10.13528 20.106625,20.13605 30.1497,30.21286 4.20486,2.60495 10.36143,4.61249 14.62397,1.07056 2.59828,-2.96432 6.38262,-2.38111 9.84692,-2.75907 3.67656,-0.53005 1.7077,-6.88225 6.16287,-5.29562 3.72455,-1.05657 4.87104,-4.80854 6.57381,-7.73392 1.92182,-2.13658 4.94529,-3.47194 4.11514,-6.97474 0.45118,-2.37768 0.72409,-5.09066 0.76055,-7.71374 -9.92145,-9.66533 -19.64875,-19.681914 -29.54621,-29.428058 -2.01736,-0.692335 -2.93347,-3.154865 -4.87425,-3.815472 z"
       id="path4735"
       inkscape:connector-curvature="0"
       clip-path="url(#clipPath3779)" />
    <path
       inkscape:connector-curvature="0"
       id="path3784"
       d="m 86.551472,970.23794 c -2.338539,-0.45144 -5.827539,-1.7375 -7.03889,-2.59138 -1.178876,-0.83227 -1.475354,-1.70658 -0.944602,-2.78542 0.428216,-0.87049 1.192366,-1.18086 2.722609,-1.10578 3.124002,0.15325 3.433358,0.12474 4.105437,-0.37813 0.347867,-0.26033 1.935397,-1.7005 3.527844,-3.2003 1.592481,-1.49987 3.391538,-3.11683 3.998001,-3.59329 0.606376,-0.4764 1.329215,-1.20598 1.606323,-1.6213 l 0.50384,-0.75512 -0.716295,-1.67225 c -0.615562,-1.43812 -0.716172,-1.85246 -0.714423,-2.94308 0.0039,-2.34676 0.558223,-3.8176 1.926299,-5.11049 1.192576,-1.12712 2.82497,-1.80417 6.336015,-2.62812 4.556,-1.06903 5.95702,-1.5212 7.29733,-2.35534 1.762,-1.09645 4.42284,-3.01639 5.47042,-3.94744 1.5592,-1.38561 2.45489,-1.52854 2.87623,-0.45904 0.28059,0.71206 0.12126,1.40581 -0.62007,2.69986 -0.33279,0.58095 -0.60244,1.10857 -0.59922,1.17251 0.003,0.0639 0.16601,0.3185 0.36178,0.56571 0.35526,0.44865 0.35694,0.44884 0.9173,0.10636 0.30876,-0.18871 0.88618,-0.61983 1.28315,-0.95804 1.0362,-0.88282 1.71991,-1.10102 2.26767,-0.7237 0.83451,0.57479 0.74872,1.6507 -0.25881,3.24579 -0.51337,0.81277 -0.51642,0.83202 -0.18977,1.20148 0.40519,0.45829 0.61271,1.52972 0.44851,2.31562 -0.067,0.32048 -0.36176,0.87006 -0.65509,1.22125 -0.52032,0.62296 -0.52548,0.64767 -0.21175,1.01209 0.46895,0.54471 0.40701,1.49194 -0.14756,2.2563 -0.62331,0.85904 -1.96409,1.87223 -2.9422,2.22306 -0.65404,0.23467 -0.78306,0.35613 -0.74391,0.70023 0.11403,1.00205 -0.308,1.64907 -1.88203,2.88534 -0.0419,0.0329 0.0174,0.15827 0.13188,0.27857 0.64391,0.67688 -0.10198,1.98404 -1.35784,2.37949 -0.48707,0.1534 -0.69925,0.36172 -0.91879,0.9021 -0.55178,1.35819 -2.69216,2.25175 -4.58592,1.91475 -0.60824,-0.10828 -1.1181,-0.18705 -1.13301,-0.17503 -0.0149,0.0121 -0.10601,0.71238 -0.20245,1.55635 -0.22946,2.00784 -0.72646,2.83547 -2.11317,3.51892 -0.94473,0.46554 -1.14973,0.49287 -3.82215,0.50958 l -2.823922,0.0177 -1.22038,0.67854 c -0.671204,0.37319 -1.774245,1.09382 -2.451223,1.60139 -2.16164,1.62074 -3.174745,2.0472 -5.049251,2.12594 -0.897919,0.0377 -1.995064,-0.002 -2.438101,-0.0871 z"
       style="fill:#263238;fill-opacity:1;fill-rule:nonzero;stroke:none;display:inline"
       transform="translate(0,-852.36218)"
       clip-path="url(#clipPath3775)" />
    <path
       id="path3782"
       d="m 116.39381,935.56619 c -0.18327,0.0261 -0.56512,0.30409 -1.16468,0.84207 -1.83076,1.6427 -5.89643,4.35465 -7.45283,4.97038 -0.59121,0.23393 -2.42004,0.7281 -4.0627,1.09906 -6.062534,1.36904 -7.6073,2.1252 -8.497222,4.15019 -0.374796,0.85284 -0.4549,1.31526 -0.459309,2.60822 -0.0048,1.41436 0.05158,1.69284 0.579604,2.816 0.552588,1.17543 0.62236,1.2467 1.186549,1.2467 0.329372,0 0.596008,-0.0709 0.596008,-0.15857 l 0.0055,0 c 0,-0.0877 -0.231789,-0.46333 -0.513989,-0.8366 -0.621405,-0.82196 -0.787185,-1.73196 -0.552264,-3.01832 0.299102,-1.63787 0.896519,-2.35783 2.723047,-3.28625 1.652686,-0.83991 1.986576,-0.95045 6.266286,-2.02861 3.90019,-0.98261 6.22185,-2.10001 8.6722,-4.17206 1.27982,-1.08227 2.11304,-2.19812 2.65196,-3.55418 0.19069,-0.47974 0.20514,-0.70413 0.0219,-0.67803 z m 4.05723,3.3464 c -0.17042,0.0395 -0.60852,0.31745 -1.04985,0.67256 -0.50438,0.40582 -1.62838,1.1886 -2.49886,1.73881 -4.23422,2.67659 -5.10074,3.02383 -9.43224,3.75103 -7.27931,1.222 -8.616815,1.97533 -9.273671,5.23284 -0.108628,0.53873 -0.196532,1.24389 -0.196847,1.56931 -8.74e-4,0.89214 1.394568,4.90131 1.738814,4.99772 0.807214,0.22598 0.902214,0.14863 0.902214,-0.71084 0,-0.69591 -0.10386,-0.94176 -0.61788,-1.51463 -0.739497,-0.82414 -0.899686,-1.58536 -0.634284,-2.97457 0.235971,-1.23516 0.868684,-2.31505 1.651324,-2.816 1.18371,-0.75773 3.53498,-1.48061 6.33737,-1.95206 5.38048,-0.90513 9.22757,-2.63097 11.6249,-5.21098 0.87657,-0.94337 1.81191,-2.67523 1.50369,-2.78319 -0.0128,-0.004 -0.0303,-0.006 -0.0547,0 z m -4.85555,1.13734 c -0.26948,-0.0149 -0.71049,0.23303 -1.30685,0.74364 -0.53099,0.45464 -1.46646,1.13382 -2.07782,1.50916 -1.29653,0.79603 -1.33522,0.83374 -1.00611,0.83113 0.13701,-10e-4 0.92223,-0.3628 1.74428,-0.80379 2.49007,-1.33585 2.99268,-1.67714 2.94177,-1.96847 -0.035,-0.2005 -0.13359,-0.30276 -0.29527,-0.31167 z m 4.05176,2.89802 c -0.0932,0 -0.79205,0.46876 -1.54744,1.03891 -0.7554,0.57016 -1.80836,1.26508 -2.34028,1.54744 -1.26766,0.67293 -3.86021,1.63773 -5.1727,1.91925 -0.90082,0.19324 -1.06243,0.28742 -1.17014,0.71084 -0.0687,0.26986 -0.0931,0.52278 -0.0547,0.5632 0.10853,0.11409 2.08727,-0.18827 4.02442,-0.61788 2.34379,-0.51984 3.80321,-1.11506 5.22191,-2.12704 1.31033,-0.9348 1.7041,-1.65587 1.38339,-2.54261 -0.0972,-0.26879 -0.25125,-0.49211 -0.34448,-0.49211 z m -0.60148,4.40171 c -0.21751,-0.0125 -0.58516,0.13755 -1.27403,0.49759 -1.45105,0.75841 -3.82955,1.44821 -6.08585,1.77162 -0.90257,0.12936 -1.66466,0.25654 -1.69507,0.27886 -0.0304,0.0223 3.5e-4,0.33917 0.0656,0.70537 0.11299,0.63309 0.14968,0.66709 0.8202,0.66709 0.38785,0 1.54754,-0.13313 2.57541,-0.2898 3.1562,-0.48106 4.07118,-0.84711 5.42969,-2.18172 0.60755,-0.59689 0.72005,-1.05643 0.33901,-1.38886 -0.044,-0.0384 -0.10247,-0.056 -0.17497,-0.0602 z m -10.64613,0.5632 -0.84753,0.12576 c -2.40276,0.35678 -5.51001,1.30781 -5.77964,1.76616 -0.0554,0.0942 0.23463,0.12542 0.66162,0.0765 0.41602,-0.0476 1.7047,-0.17673 2.86522,-0.2898 1.16054,-0.11309 2.2129,-0.2944 2.34029,-0.40463 0.12726,-0.11025 0.35288,-0.44401 0.49758,-0.73818 l 0.26246,-0.53586 z m -10.810165,0.28434 c -0.01471,0.001 -0.04502,0.0426 -0.08749,0.11482 -0.08963,0.1525 -0.214196,0.48401 -0.278867,0.73818 -0.08172,0.32116 -0.06951,0.37861 0.04374,0.18591 0.08963,-0.1525 0.219664,-0.48948 0.284334,-0.74364 0.05108,-0.20073 0.0628,-0.29758 0.03828,-0.29527 z m 10.859385,1.88644 c -0.0753,0.009 -0.16916,0.0659 -0.31168,0.16404 -0.43,0.29618 -3.59136,0.64008 -5.92727,0.64522 -1.43338,0.003 -1.74429,0.16736 -1.74429,0.90222 l 0,0.45384 3.4831,-0.11483 c 1.91667,-0.0624 3.71362,-0.2039 3.99708,-0.31714 0.28332,-0.11324 0.65436,-0.33434 0.8202,-0.49212 0.27299,-0.2597 0.27564,-0.33766 0.0383,-0.82019 -0.15467,-0.3144 -0.22996,-0.43653 -0.35542,-0.42104 z m 6.29909,1.94113 c -0.39964,0.003 -1.12561,0.0932 -2.41684,0.257 -1.16054,0.14719 -2.27883,0.27023 -2.48792,0.27339 -0.34994,0.005 -0.3691,0.0543 -0.19685,0.60695 0.10297,0.3304 0.21758,0.71145 0.25153,0.84753 0.048,0.19249 0.48714,0.23459 1.9794,0.18591 1.84231,-0.0601 1.94336,-0.0838 2.59182,-0.63428 0.41509,-0.35238 0.6985,-0.76516 0.7327,-1.06625 0.0377,-0.33178 0.06,-0.47369 -0.45384,-0.47025 z m -6.55062,0.9733 c -0.0449,3.5e-4 -0.0923,0.0112 -0.14217,0.0328 -0.16183,0.0702 -1.8378,0.16656 -3.72368,0.21325 -1.88588,0.0467 -3.54276,0.12264 -3.67994,0.1695 -0.18047,0.0617 -0.0796,0.26227 0.35541,0.72178 l 0.60148,0.63428 2.70118,0.005 c 1.58187,0.003 2.99211,-0.0862 3.3956,-0.21325 0.81736,-0.25742 1.11966,-0.71805 0.8366,-1.27404 -0.0994,-0.19527 -0.20976,-0.29089 -0.34448,-0.2898 z m -11.324158,1.41073 c -0.507918,0 -0.710434,0.14726 -1.34512,0.9733 -0.410106,0.53373 -1.0295,1.24211 -1.377927,1.57478 -0.538415,0.51407 -0.593051,0.62908 -0.355418,0.77645 0.153773,0.0953 0.472284,0.34279 0.705368,0.54679 0.233066,0.20399 0.440254,0.3739 0.459309,0.37729 0.01906,0.003 0.56586,-0.42053 1.219356,-0.94049 0.653496,-0.51995 1.373238,-1.03579 1.596646,-1.1428 0.431068,-0.20647 0.428107,-0.31904 -0.06015,-1.54744 -0.209637,-0.5274 -0.331875,-0.61788 -0.842066,-0.61788 z m 13.407448,0.90222 c -1.67533,0.0146 -2.25827,0.21181 -2.25827,0.70537 0,0.52839 4.14892,0.8038 5.19457,0.34448 0.62515,-0.27457 0.80475,-0.72316 0.36089,-0.90222 -0.13708,-0.0553 -1.26623,-0.12061 -2.5098,-0.14216 -0.28547,-0.005 -0.54805,-0.008 -0.78739,-0.005 z m -4.88289,0.60148 c -0.32418,-10e-4 -0.72682,0.006 -1.22482,0.0164 -2.2976,0.0492 -2.39222,0.0661 -2.44419,0.44837 -0.0645,0.4755 0.40271,0.67287 2.51527,1.04985 1.60541,0.28651 2.29081,0.14068 2.58635,-0.54133 0.14042,-0.32398 0.13153,-0.50669 -0.0383,-0.72177 -0.14189,-0.17972 -0.4218,-0.24716 -1.39433,-0.25152 z m 2.88709,1.57477 c -0.36764,-0.026 -0.54494,0.1104 -1.07172,0.59054 -0.40726,0.37119 -0.70468,0.70841 -0.6671,0.74911 0.0376,0.0407 0.44126,0.18294 0.90222,0.31714 1.03702,0.30192 2.19939,0.16932 3.12221,-0.36088 0.38576,-0.22166 0.72769,-0.55068 0.76004,-0.72724 0.0498,-0.27156 -0.083,-0.32126 -0.87487,-0.32808 -0.51483,-0.004 -1.28717,-0.0768 -1.71694,-0.16404 -0.1853,-0.0376 -0.3313,-0.0679 -0.45384,-0.0765 z m -7.73171,0.54133 c -0.10952,1.7e-4 -0.21881,10e-4 -0.32808,0.005 -1.438797,0.057 -2.116317,0.34948 -3.368262,1.43807 -0.488933,0.42516 -0.509606,0.48839 -0.278867,0.88582 0.659498,1.1359 1.079841,2.22904 1.202953,3.13314 0.133854,0.98273 0.142457,0.99359 0.836599,1.11546 0.385889,0.0678 1.573837,0.10464 2.641027,0.082 1.6841,-0.0357 2.04681,-0.0992 2.72852,-0.49212 1.09508,-0.63136 1.42166,-1.37511 1.36152,-3.11128 -0.0459,-1.32358 -0.0681,-1.38565 -0.6835,-1.90832 -0.82075,-0.6972 -2.46905,-1.15142 -4.11191,-1.14827 z m -8.551896,1.00064 c -0.19025,0 -1.564835,1.15129 -3.105804,2.59728 -1.520165,1.42646 -3.079821,2.75127 -3.466691,2.94724 -0.818007,0.41445 -1.300413,0.4496 -3.718217,0.26792 -1.781244,-0.13473 -1.781069,-0.13691 -2.077827,0.33902 -0.230896,0.37045 -0.253145,0.56532 -0.103891,0.85848 0.394603,0.77507 4.850042,2.58044 7.250523,2.94176 1.551537,0.23354 1.675813,0.23687 2.936298,0.0219 1.32134,-0.22538 1.994232,-0.55974 3.745556,-1.87552 0.71542,-0.53748 1.592823,-1.14409 1.952064,-1.34512 0.606515,-0.33938 0.651597,-0.42676 0.650688,-1.20295 -0.0014,-1.17422 -0.266601,-2.05158 -0.935022,-3.08393 -0.610138,-0.94245 -2.540461,-2.46605 -3.127677,-2.46605 z"
       style="fill:#ffffff;fill-opacity:0.94117647;fill-rule:nonzero;stroke:none;display:inline"
       inkscape:connector-curvature="0"
       transform="translate(0,-852.36218)"
       clip-path="url(#clipPath3771)" />
  </g>
</svg>
