<?xml version="1.0" encoding="UTF-8" standalone="no"?>
<!-- Created with Inkscape (http://www.inkscape.org/) -->

<svg
   xmlns:dc="http://purl.org/dc/elements/1.1/"
   xmlns:cc="http://creativecommons.org/ns#"
   xmlns:rdf="http://www.w3.org/1999/02/22-rdf-syntax-ns#"
   xmlns:svg="http://www.w3.org/2000/svg"
   xmlns="http://www.w3.org/2000/svg"
   xmlns:sodipodi="http://sodipodi.sourceforge.net/DTD/sodipodi-0.dtd"
   xmlns:inkscape="http://www.inkscape.org/namespaces/inkscape"
   id="svg3846"
   sodipodi:docname="uga.svg"
   viewBox="0 0 247.87 205.47"
   version="1.1"
   inkscape:version="0.48.5 r10040"
   width="100%"
   height="100%">
  <defs
     id="defs7" />
  <sodipodi:namedview
     id="namedview3848"
     fit-margin-left="0"
     inkscape:zoom="3.4811411"
     borderopacity="1"
     inkscape:current-layer="layer2"
     inkscape:cx="181.03539"
     inkscape:cy="94.765272"
     inkscape:window-maximized="1"
     showgrid="false"
     fit-margin-right="0"
     bordercolor="#666666"
     inkscape:window-x="-8"
     guidetolerance="10"
     objecttolerance="10"
     inkscape:window-y="-8"
     fit-margin-bottom="0"
     inkscape:window-width="1920"
     inkscape:pageopacity="0"
     inkscape:pageshadow="2"
     pagecolor="#ffffff"
     gridtolerance="10"
     inkscape:window-height="1017"
     fit-margin-top="0" />
  <metadata
     id="metadata5">
    <rdf:RDF>
      <cc:Work>
        <dc:format>image/svg+xml</dc:format>
        <dc:type
           rdf:resource="http://purl.org/dc/dcmitype/StillImage" />
        <cc:license
           rdf:resource="http://creativecommons.org/licenses/publicdomain/" />
        <dc:publisher>
          <cc:Agent
             rdf:about="http://openclipart.org/">
            <dc:title>Openclipart</dc:title>
          </cc:Agent>
        </dc:publisher>
        <dc:title />
        <dc:date>2012-07-04T12:36:25</dc:date>
        <dc:description>A winged foot, popular symbol of track &amp; field</dc:description>
        <dc:source>https://openclipart.org/detail/171035/winged-foot-by-spacefem-171035</dc:source>
        <dc:creator>
          <cc:Agent>
            <dc:title>spacefem</dc:title>
          </cc:Agent>
        </dc:creator>
        <dc:subject>
          <rdf:Bag>
            <rdf:li>Hermes</rdf:li>
            <rdf:li>feet</rdf:li>
            <rdf:li>field</rdf:li>
            <rdf:li>running</rdf:li>
            <rdf:li>track</rdf:li>
            <rdf:li>track and field</rdf:li>
            <rdf:li>wings</rdf:li>
          </rdf:Bag>
        </dc:subject>
      </cc:Work>
      <cc:License
         rdf:about="http://creativecommons.org/licenses/publicdomain/">
        <cc:permits
           rdf:resource="http://creativecommons.org/ns#Reproduction" />
        <cc:permits
           rdf:resource="http://creativecommons.org/ns#Distribution" />
        <cc:permits
           rdf:resource="http://creativecommons.org/ns#DerivativeWorks" />
      </cc:License>
    </rdf:RDF>
  </metadata>
  <g
     inkscape:groupmode="layer"
     id="layer1"
     inkscape:label="shape"
     style="display:inline">
    <path
       transform="translate(0,5.2682743e-6)"
       style="fill:#37474f;fill-opacity:1;fill-rule:nonzero;stroke:none"
       d="m 47.076,204.89 c -13.365,-2.58 -33.305,-9.93 -40.228,-14.81 -6.7374,-4.7565 -8.4318,-9.7533 -5.3985,-15.919 2.4473,-4.9749 6.8145,-6.7486 15.56,-6.3196 17.854,0.87587 19.622,0.71298 23.463,-2.1611 1.9881,-1.4878 11.061,-9.7185 20.162,-18.29 9.1012,-8.5719 19.383,-17.813 22.849,-20.536 3.4655,-2.7227 7.5966,-6.8923 9.1803,-9.2659 l 2.8795,-4.3156 -4.0937,-9.5571 c -3.518,-8.219 -4.093,-10.587 -4.083,-16.82 0.02205,-13.412 3.1903,-21.818 11.009,-29.207 6.8157,-6.4416 16.145,-10.311 36.211,-15.02 26.038,-6.1096 34.045,-8.6938 41.705,-13.461 10.07,-6.2663 25.277,-17.239 31.264,-22.56 8.911,-7.9189 14.03,-8.7358 16.438,-2.6235 1.6036,4.0695 0.69299,8.0344 -3.5438,15.43 -1.9019,3.3202 -3.443,6.3356 -3.4246,6.701 0.0184,0.36537 0.9488,1.8203 2.0676,3.2331 2.0304,2.5641 2.04,2.5652 5.2425,0.60785 1.7646,-1.0785 5.0646,-3.5424 7.3333,-5.4753 5.922,-5.0454 9.8295,-6.2924 12.96,-4.136 4.7693,3.285 4.279,9.4339 -1.4791,18.55 -2.934,4.6451 -2.9514,4.7551 -1.0846,6.8666 2.3157,2.6192 3.5017,8.7425 2.5633,13.234 -0.3827,1.8316 -2.0675,4.9725 -3.7439,6.9796 -2.9737,3.5603 -3.0032,3.7015 -1.2102,5.7842 2.6801,3.1131 2.3261,8.5266 -0.84328,12.895 -3.5623,4.9095 -11.225,10.7 -16.815,12.705 -3.7379,1.3412 -4.4753,2.0353 -4.2515,4.0019 0.65168,5.7268 -1.7603,9.4246 -10.756,16.49 -0.23952,0.18811 0.0997,0.90456 0.7537,1.5921 3.68,3.8684 -0.58284,11.339 -7.7602,13.599 -2.7837,0.87672 -3.9963,2.0673 -5.251,5.1556 -3.1535,7.7622 -15.386,12.869 -26.209,10.943 -3.4762,-0.61882 -6.3901,-1.069 -6.4753,-1.0003 -0.0851,0.0687 -0.60582,4.0713 -1.157,8.8947 -1.3114,11.475 -4.1518,16.205 -12.077,20.111 -5.3992,2.6606 -6.5708,2.8168 -21.844,2.9123 l -16.139,0.10088 -6.9746,3.8779 c -3.836,2.1328 -10.14,6.2513 -14.009,9.1521 -12.354,9.2627 -18.144,11.7 -28.857,12.15 -5.1317,0.21535 -11.402,-0.008 -13.934,-0.49752 z"
       id="path3784"
       inkscape:connector-curvature="0" />
  </g>
  <g
     inkscape:groupmode="layer"
     id="layer2"
     inkscape:label="details"
     style="display:inline">
    <path
       style="fill:#ffffff;fill-opacity:0.94117647;fill-rule:nonzero;stroke:none"
       d="M 217.59375 7.34375 C 216.54633 7.4929212 214.36401 9.0816651 210.9375 12.15625 C 200.4745 21.54445 177.23875 37.0435 168.34375 40.5625 C 164.96495 41.8994 154.513 44.72365 145.125 46.84375 C 110.477 54.66795 101.6485 58.9895 96.5625 70.5625 C 94.4205 75.4366 93.9627 78.07935 93.9375 85.46875 C 93.91 93.55195 94.23229 95.1435 97.25 101.5625 C 100.4081 108.2802 100.80685 108.6875 104.03125 108.6875 C 105.91365 108.6875 107.4375 108.28238 107.4375 107.78125 L 107.46875 107.78125 C 107.46875 107.28013 106.14405 105.1333 104.53125 103 C 100.97985 98.3024 100.0324 93.1017 101.375 85.75 C 103.0844 76.3894 106.4987 72.27475 116.9375 66.96875 C 126.3828 62.16855 128.291 61.5368 152.75 55.375 C 175.04 49.7593 188.3085 43.37325 202.3125 31.53125 C 209.6268 25.34595 214.38875 18.96875 217.46875 11.21875 C 218.55855 8.4769501 218.64117 7.1945788 217.59375 7.34375 z M 240.78125 26.46875 C 239.80727 26.694384 237.30352 28.283025 234.78125 30.3125 C 231.89865 32.6318 225.4749 37.1055 220.5 40.25 C 196.301 55.547 191.34875 57.5315 166.59375 61.6875 C 124.99175 68.6714 117.34775 72.97675 113.59375 91.59375 C 112.97293 94.67265 112.47055 98.7027 112.46875 100.5625 C 112.46375 105.6612 120.43885 128.574 122.40625 129.125 C 127.01955 130.4165 127.5625 129.97447 127.5625 125.0625 C 127.5625 121.0853 126.96892 119.68025 124.03125 116.40625 C 119.80495 111.69615 118.88945 107.34575 120.40625 99.40625 C 121.75485 92.34715 125.37085 86.1755 129.84375 83.3125 C 136.60875 78.982 150.0465 74.85065 166.0625 72.15625 C 196.8125 66.98335 218.799 57.12 232.5 42.375 C 237.5097 36.9835 242.85525 27.08575 241.09375 26.46875 C 241.02068 26.443148 240.92039 26.436517 240.78125 26.46875 z M 213.03125 32.96875 C 211.49117 32.883852 208.97075 34.300563 205.5625 37.21875 C 202.5278 39.81705 197.1815 43.69865 193.6875 45.84375 C 186.2777 50.39315 186.0566 50.60865 187.9375 50.59375 C 188.72052 50.58775 193.20815 48.5203 197.90625 46 C 212.13725 38.3655 215.00975 36.415 214.71875 34.75 C 214.5186 33.604113 213.9553 33.019689 213.03125 32.96875 z M 236.1875 49.53125 C 235.65469 49.53125 231.66085 52.21025 227.34375 55.46875 C 223.02655 58.72725 217.00875 62.6988 213.96875 64.3125 C 206.72395 68.1584 191.90725 73.67235 184.40625 75.28125 C 179.25795 76.38565 178.33435 76.92385 177.71875 79.34375 C 177.32637 80.88605 177.18648 82.3315 177.40625 82.5625 C 178.02653 83.21452 189.33525 81.48655 200.40625 79.03125 C 213.80125 76.06035 222.142 72.6586 230.25 66.875 C 237.7387 61.5325 239.98915 57.41155 238.15625 52.34375 C 237.60063 50.80755 236.7203 49.53125 236.1875 49.53125 z M 232.75 74.6875 C 231.50691 74.61608 229.40572 75.473588 225.46875 77.53125 C 217.17585 81.86565 203.5825 85.80795 190.6875 87.65625 C 185.5292 88.39559 181.1738 89.1224 181 89.25 C 180.82618 89.37757 181.00152 91.18835 181.375 93.28125 C 182.02072 96.89945 182.23044 97.09375 186.0625 97.09375 C 188.2791 97.09375 194.90685 96.33291 200.78125 95.4375 C 218.81925 92.6882 224.0485 90.59615 231.8125 82.96875 C 235.2847 79.55745 235.9277 76.93115 233.75 75.03125 C 233.49825 74.811628 233.16436 74.711307 232.75 74.6875 z M 171.90625 77.90625 L 167.0625 78.625 C 153.3305 80.664 135.57225 86.09925 134.03125 88.71875 C 133.71464 89.25725 135.3722 89.43556 137.8125 89.15625 C 140.1901 88.88412 147.555 88.1462 154.1875 87.5 C 160.8201 86.85371 166.8345 85.8175 167.5625 85.1875 C 168.28984 84.55745 169.57925 82.64995 170.40625 80.96875 L 171.90625 77.90625 z M 110.125 79.53125 C 110.04091 79.539143 109.86773 79.774513 109.625 80.1875 C 109.11275 81.05902 108.40085 82.95365 108.03125 84.40625 C 107.5642 86.24175 107.63396 86.57005 108.28125 85.46875 C 108.7935 84.59723 109.53665 82.67135 109.90625 81.21875 C 110.19816 80.071563 110.26516 79.518096 110.125 79.53125 z M 172.1875 90.3125 C 171.75728 90.365621 171.22075 90.689 170.40625 91.25 C 167.94875 92.9427 149.88125 94.9081 136.53125 94.9375 C 128.33935 94.9556 126.5625 95.89394 126.5625 100.09375 L 126.5625 102.6875 L 146.46875 102.03125 C 157.42275 101.67478 167.6925 100.86595 169.3125 100.21875 C 170.9317 99.57159 173.0522 98.30795 174 97.40625 C 175.5602 95.92205 175.5753 95.47645 174.21875 92.71875 C 173.33481 90.921938 172.90454 90.223966 172.1875 90.3125 z M 208.1875 101.40625 C 205.90348 101.42152 201.7545 101.93901 194.375 102.875 C 187.7424 103.71625 181.35125 104.4194 180.15625 104.4375 C 178.15635 104.4678 178.04685 104.74775 179.03125 107.90625 C 179.61976 109.79455 180.27475 111.9723 180.46875 112.75 C 180.74315 113.8501 183.25285 114.0907 191.78125 113.8125 C 202.31025 113.46911 202.88775 113.33372 206.59375 110.1875 C 208.96605 108.1736 210.58575 105.81455 210.78125 104.09375 C 210.99669 102.19762 211.1241 101.38661 208.1875 101.40625 z M 170.75 106.96875 C 170.49335 106.97082 170.2225 107.0326 169.9375 107.15625 C 169.01263 107.55747 159.43425 108.1082 148.65625 108.375 C 137.87825 108.64181 128.409 109.07593 127.625 109.34375 C 126.5936 109.69616 127.1703 110.84265 129.65625 113.46875 L 133.09375 117.09375 L 148.53125 117.125 C 157.57185 117.1447 165.6315 116.63266 167.9375 115.90625 C 172.6088 114.43505 174.33645 111.8025 172.71875 108.625 C 172.1506 107.509 171.51995 106.96253 170.75 106.96875 z M 106.03125 115.03125 C 103.12845 115.03125 101.97105 115.87284 98.34375 120.59375 C 95.99995 123.64405 92.46005 127.69255 90.46875 129.59375 C 87.39165 132.53175 87.0794 133.18905 88.4375 134.03125 C 89.31633 134.5762 91.13665 135.99035 92.46875 137.15625 C 93.80075 138.32205 94.98485 139.2931 95.09375 139.3125 C 95.20267 139.3318 98.3277 136.9091 102.0625 133.9375 C 105.7973 130.9659 109.9107 128.01785 111.1875 127.40625 C 113.6511 126.22625 113.63418 125.5829 110.84375 118.5625 C 109.64565 115.5483 108.94705 115.03125 106.03125 115.03125 z M 182.65625 120.1875 C 173.08154 120.2708 169.75 121.39802 169.75 124.21875 C 169.75 127.23855 193.4615 128.8126 199.4375 126.1875 C 203.0103 124.6183 204.0367 122.05455 201.5 121.03125 C 200.71658 120.71523 194.26335 120.34195 187.15625 120.21875 C 185.52475 120.19047 184.02407 120.1756 182.65625 120.1875 z M 154.75 123.625 C 152.89729 123.61669 150.59612 123.65778 147.75 123.71875 C 134.619 124.00007 134.07825 124.09624 133.78125 126.28125 C 133.41284 128.99875 136.08275 130.12675 148.15625 132.28125 C 157.33135 133.91865 161.2485 133.08525 162.9375 129.1875 C 163.74005 127.3359 163.6892 126.2917 162.71875 125.0625 C 161.90785 124.03538 160.30813 123.64992 154.75 123.625 z M 171.25 132.625 C 169.14893 132.47663 168.13565 133.25595 165.125 136 C 162.7975 138.1214 161.0977 140.04865 161.3125 140.28125 C 161.52731 140.51393 163.83435 141.32675 166.46875 142.09375 C 172.39545 143.81925 179.0385 143.06142 184.3125 140.03125 C 186.5172 138.76445 188.47135 136.8841 188.65625 135.875 C 188.94058 134.323 188.18178 134.039 183.65625 134 C 180.71395 133.9748 176.29995 133.5608 173.84375 133.0625 C 172.78473 132.84766 171.95036 132.67446 171.25 132.625 z M 127.0625 135.71875 C 126.43656 135.71995 125.81194 135.72526 125.1875 135.75 C 116.9646 136.07586 113.0925 137.74735 105.9375 143.96875 C 103.1432 146.39855 103.02505 146.75995 104.34375 149.03125 C 108.11285 155.52305 110.51515 161.7705 111.21875 166.9375 C 111.98374 172.5539 112.03291 172.616 116 173.3125 C 118.2054 173.6997 124.99465 173.91053 131.09375 173.78125 C 140.71855 173.57723 142.7915 173.21448 146.6875 170.96875 C 152.946 167.36045 154.81245 163.1099 154.46875 153.1875 C 154.20672 145.6231 154.07941 145.26835 150.5625 142.28125 C 145.87181 138.29669 136.45162 135.70076 127.0625 135.71875 z M 78.1875 141.4375 C 77.1002 141.4375 69.2443 148.01725 60.4375 156.28125 C 51.7496 164.43365 42.836 172.005 40.625 173.125 C 35.95 175.4936 33.193 175.69455 19.375 174.65625 C 9.1950002 173.88625 9.196 173.87375 7.5 176.59375 C 6.1804 178.71095 6.05325 179.8246 6.90625 181.5 C 9.16145 185.9296 34.62475 196.2475 48.34375 198.3125 C 57.21095 199.6472 57.9212 199.66629 65.125 198.4375 C 72.6766 197.1494 76.52225 195.23855 86.53125 187.71875 C 90.61995 184.64695 95.6344 181.18015 97.6875 180.03125 C 101.1538 178.09165 101.41145 177.59225 101.40625 173.15625 C 101.39825 166.44545 99.8826 161.43125 96.0625 155.53125 C 92.5755 150.14505 81.5435 141.4375 78.1875 141.4375 z "
       transform="translate(0,-2.6341372e-6)"
       id="path3782" />
  </g>
</svg>
